<?xml version="1.0" encoding="iso-8859-1"?>
<!-- Generator: Adobe Illustrator 19.0.0, SVG Export Plug-In . SVG Version: 6.00 Build 0)  -->
<svg version="1.1" id="Capa_1" xmlns="http://www.w3.org/2000/svg" xmlns:xlink="http://www.w3.org/1999/xlink" x="0px" y="0px"
	 viewBox="0 0 511.999 511.999" style="enable-background:new 0 0 511.999 511.999;" xml:space="preserve">
<path style="fill:#FFE477;" d="M272.023,274.811c-37.494,0-67.89-30.395-67.89-67.89c0-31.42-25.561-56.982-56.981-56.982
	c-37.494,0-67.89-30.395-67.89-67.89s30.395-67.89,67.89-67.89c106.288,0,192.76,86.473,192.76,192.762
	C339.913,244.416,309.518,274.811,272.023,274.811z"/>
<path style="fill:#FF7956;" d="M243.847,394.932c0-37.494,30.395-67.89,67.89-67.89c31.42,0,56.982-25.561,56.982-56.981
	c0-37.494,30.395-67.89,67.89-67.89s67.89,30.395,67.89,67.89c0,106.288-86.473,192.76-192.762,192.76
	C274.243,462.822,243.847,432.427,243.847,394.932z"/>
<path style="fill:#91DC5A;" d="M133.475,200.263c31.278,20.677,39.871,62.795,19.194,94.072
	c-17.327,26.211-10.101,61.631,16.109,78.958c31.278,20.677,39.871,62.795,19.194,94.072s-62.795,39.871-94.072,19.194
	C5.235,427.944-19.212,308.122,39.403,219.457C60.08,188.179,102.198,179.586,133.475,200.263z"/>
<path style="fill:#FFB655;" d="M234.133,206.921c0-31.42-25.561-56.982-56.981-56.982c-37.494,0-67.89-30.395-67.89-67.89
	c0-33.692,24.543-61.651,56.725-66.976c-6.198-0.604-12.481-0.914-18.835-0.914c-37.494,0-67.89,30.395-67.89,67.89
	s30.395,67.89,67.89,67.89c31.42,0,56.981,25.562,56.981,56.982c0,37.494,30.395,67.89,67.89,67.89c5.154,0,10.174-0.575,15-1.663
	C256.746,266.32,234.133,239.262,234.133,206.921z"/>
<path style="fill:#FF3F62;" d="M273.847,394.932c0-37.494,30.395-67.89,67.89-67.89c31.42,0,56.982-25.561,56.982-56.981
	c0-32.34,22.613-59.398,52.89-66.227c-4.826-1.088-9.846-1.663-15-1.663c-37.495,0-67.89,30.395-67.89,67.89
	c0,31.42-25.562,56.981-56.982,56.981c-37.495,0-67.89,30.395-67.89,67.89s30.395,67.89,67.89,67.89
	c6.354,0,12.637-0.31,18.836-0.914C298.39,456.583,273.847,428.624,273.847,394.932z"/>
<path style="fill:#64C37D;" d="M123.9,486.559C35.235,427.944,10.788,308.122,69.403,219.457
	c10.057-15.213,25.187-25.06,41.674-28.782c-26.752-6.072-55.651,4.544-71.674,28.782C-19.212,308.122,5.235,427.944,93.9,486.559
	c16.064,10.62,34.988,13.518,52.398,9.588C138.528,494.384,130.94,491.213,123.9,486.559z"/>
<path d="M347.413,206.921c0-110.425-89.836-200.262-200.26-200.262c-41.57,0-75.39,33.819-75.39,75.39s33.82,75.391,75.39,75.391
	c27.284,0,49.481,22.197,49.481,49.481c0,41.57,33.82,75.39,75.39,75.39C313.593,282.311,347.413,248.491,347.413,206.921z
	 M211.633,206.921c0-35.556-28.926-64.481-64.481-64.481c-33.299,0-60.39-27.091-60.39-60.391c0-33.299,27.091-60.39,60.39-60.39
	c102.153,0,185.26,83.108,185.26,185.262c0,33.299-27.091,60.39-60.39,60.39S211.633,240.22,211.633,206.921z"/>
<g>
	<path style="fill:#FFFFFF;" d="M120.708,82.049h-15c0,22.854,18.592,41.445,41.445,41.445c17.731,0,34.674,5.514,48.998,15.945
		l8.831-12.125c-16.906-12.313-36.902-18.82-57.829-18.82C132.571,108.494,120.708,96.631,120.708,82.049z"/>
	<path style="fill:#FFFFFF;" d="M307.368,162.225c-12.802-45.832-44.775-84.094-87.722-104.976l-6.559,13.49
		c39.088,19.005,68.186,53.821,79.833,95.521L307.368,162.225z"/>
	<path style="fill:#FFFFFF;" d="M190.932,62.058c4.537,1.375,9.066,2.985,13.46,4.788l5.692-13.878
		c-4.833-1.982-9.813-3.754-14.805-5.266L190.932,62.058z"/>
	<path style="fill:#FFFFFF;" d="M185.158,44.986c-5.079-1.191-10.278-2.153-15.454-2.857l-2.022,14.863
		c4.706,0.641,9.433,1.515,14.051,2.598L185.158,44.986z"/>
</g>
<path d="M436.609,194.672c-41.57,0-75.39,33.819-75.39,75.39c0,27.283-22.197,49.48-49.482,49.48c-41.57,0-75.39,33.819-75.39,75.39
	s33.819,75.39,75.39,75.39c110.425,0,200.262-89.836,200.262-200.26C511.999,228.491,478.179,194.672,436.609,194.672z
	 M311.737,455.322c-33.299,0-60.39-27.091-60.39-60.39s27.091-60.39,60.39-60.39c35.556,0,64.482-28.926,64.482-64.48
	c0-33.299,27.091-60.39,60.39-60.39s60.39,27.091,60.39,60.39C496.999,372.214,413.89,455.322,311.737,455.322z"/>
<path d="M407.485,312.423l14.094,5.137c1.849-5.073,3.289-10.334,4.282-15.637l-14.744-2.76
	C410.275,303.659,409.053,308.121,407.485,312.423z"/>
<path d="M396.8,332.665l12.197,8.73c3.142-4.388,5.943-9.063,8.33-13.894l-13.449-6.643
	C401.851,324.964,399.47,328.936,396.8,332.665z"/>
<path style="fill:#FFFFFF;" d="M363.305,326.944c-14.164,12.854-32.479,19.934-51.568,19.934c-26.497,0-48.055,21.558-48.055,48.055
	h15c0-18.227,14.828-33.055,33.055-33.055c22.825,0,44.719-8.462,61.648-23.826L363.305,326.944z"/>
<path d="M365.606,418.526l5.127,14.096c4.886-1.776,9.755-3.805,14.474-6.027l-6.393-13.57
	C374.507,415.053,370.063,416.904,365.606,418.526z"/>
<path d="M342.656,424.949l2.932,14.711c5.106-1.018,10.228-2.284,15.22-3.763l-4.262-14.383
	C351.99,422.866,347.316,424.021,342.656,424.949z"/>
<path d="M318.993,427.823l0.68,14.984c5.21-0.236,10.461-0.713,15.607-1.417l-2.033-14.861
	C328.547,427.171,323.752,427.607,318.993,427.823z"/>
<g>
	<path style="fill:#FFFFFF;" d="M481.944,254.118l-14.146,4.988c1.237,3.51,1.865,7.196,1.866,10.955
		c0,32.23-9.689,63.252-28.021,89.71l12.33,8.543c20.078-28.98,30.69-62.955,30.69-98.255
		C484.663,264.597,483.748,259.234,481.944,254.118z"/>
	<path style="fill:#FFFFFF;" d="M453.986,225.257c-5.544-2.156-11.391-3.25-17.377-3.25v15c4.118,0,8.136,0.75,11.939,2.229
		L453.986,225.257z"/>
	<path style="fill:#FFFFFF;" d="M464.174,251.841l12.496-8.297c-3.293-4.961-7.425-9.226-12.279-12.676l-8.689,12.227
		C459.051,245.476,461.902,248.418,464.174,251.841z"/>
</g>
<path d="M172.915,367.036c-22.76-15.046-29.036-45.805-13.989-68.565c11.105-16.798,15.004-36.916,10.978-56.646
	c-4.026-19.731-15.494-36.713-32.293-47.818l0,0c-16.798-11.104-36.915-15.003-56.647-10.979
	c-19.73,4.026-36.713,15.494-47.818,32.293c-60.896,92.115-35.497,216.6,56.617,277.495c12.482,8.251,26.794,12.524,41.421,12.524
	c5.058-0.001,10.156-0.512,15.226-1.546c19.731-4.026,36.713-15.494,47.818-32.293s15.004-36.916,10.979-56.646
	C201.181,395.123,189.713,378.142,172.915,367.036z M181.716,463.23c-8.896,13.456-22.499,22.643-38.304,25.867
	c-15.806,3.225-31.92,0.101-45.376-8.795c-85.215-56.334-108.711-171.493-52.377-256.71c8.896-13.456,22.499-22.643,38.304-25.867
	c4.062-0.828,8.144-1.238,12.196-1.238c11.715,0,23.182,3.423,33.179,10.033c13.457,8.896,22.643,22.498,25.868,38.304
	c3.225,15.805,0.102,31.92-8.793,45.376c-19.608,29.66-11.431,69.742,18.229,89.351c13.456,8.896,22.643,22.498,25.867,38.303
	C193.734,433.658,190.611,449.773,181.716,463.23z"/>
<g>
	<path style="fill:#FFFFFF;" d="M116.756,451.986c-16.67-11.02-30.731-24.892-41.792-41.23l-12.421,8.41
		c12.167,17.973,27.625,33.225,45.941,45.334c6.862,4.536,14.731,6.885,22.771,6.885c2.781,0,5.583-0.281,8.37-0.85l-2.998-14.697
		C129.706,457.25,122.648,455.882,116.756,451.986z"/>
	<path style="fill:#FFFFFF;" d="M121.947,251.609c0.361,1.771,0.544,3.573,0.544,5.356c0,5.146-1.52,10.165-4.396,14.515
		c-10.681,16.157-16.326,34.849-16.326,54.055c0,6.634,0.679,13.328,2.019,19.896l14.697-2.998
		c-1.139-5.583-1.716-11.269-1.716-16.897c0-16.256,4.786-32.087,13.839-45.782c4.503-6.811,6.883-14.69,6.883-22.787
		c0-2.788-0.285-5.6-0.848-8.355c-0.27-1.325-0.607-2.648-1.002-3.936l-14.34,4.402
		C121.556,249.904,121.773,250.756,121.947,251.609z"/>
	<path style="fill:#FFFFFF;" d="M117.964,242.082l12.431-8.395c-3.043-4.507-6.914-8.33-11.503-11.364
		c-0.566-0.374-1.141-0.734-1.721-1.079l-7.657,12.898c0.374,0.222,0.743,0.453,1.107,0.694
		C113.558,236.779,116.029,239.216,117.964,242.082z"/>
	<path style="fill:#FFFFFF;" d="M102.332,231.194l3.586-14.564c-5.9-1.454-12.138-1.571-18.167-0.341l2.999,14.697
		C94.611,230.199,98.581,230.269,102.332,231.194z"/>
</g>
<g>
</g>
<g>
</g>
<g>
</g>
<g>
</g>
<g>
</g>
<g>
</g>
<g>
</g>
<g>
</g>
<g>
</g>
<g>
</g>
<g>
</g>
<g>
</g>
<g>
</g>
<g>
</g>
<g>
</g>
</svg>
